/* XPM */
static char *ac6b813e01044092b698f915b5d25dc8hvXmis4CITEl9Leo[] = {
/* columns rows colors chars-per-pixel */
"32 32 42 1 ",
"  c #F5D626",
". c #F6D725",
"X c #F4C215",
"o c #F5E839",
"O c #F6E93B",
"+ c #F5C116",
"@ c #F7E739",
"# c #F5E83A",
"$ c #F4D626",
"% c #F4C116",
"& c #F6E93A",
"* c #F5D624",
"= c #F4D525",
"- c #F4E738",
"; c #F6D526",
": c #F5E837",
"> c #F6D727",
", c #F7E73A",
"< c #292626",
"1 c #57574F",
"2 c #1C1B16",
"3 c #535332",
"4 c #3C3C3A",
"5 c #191813",
"6 c #17160D",
"7 c #23221B",
"8 c #F8E83A",
"9 c #F4D628",
"0 c #797952",
"q c #2B2929",
"w c #252323",
"e c #41413E",
"r c #27261F",
"t c #30301B",
"y c #5F5F57",
"u c #373734",
"i c #F4E939",
"p c #71716A",
"a c #F5D528",
"s c #2D2B2B",
"d c #82824E",
"f c #3D3D3A",
/* pixels */
"  .XooO   oooooo  .XooO   oooooo",
"  +@#oo  $oooo    +@#oo  $oooo  ",
"  %&@o   *ooo     %&@o   *ooo   ",
" %oo@o  =%ooo    %oo@o  =%ooo   ",
"+o-o&*   oo-  ;%+o-o&*   oo-  ;%",
"o:o@ >; %#o-  %,o:o@ >; %#o-  %,",
"ooo   > <#<< <<,<o< <<<%<oo  %oo",
"&* =$.%111111234444565756<* %o8o",
" 9=%%%<101111q44444q77775  %ooo$",
" >%oo:<111011w4e44427rt77<%o#o* ",
"%%oooo 10yyy1u444442r7rr7%o- *  ",
"o:Ooo <yyyyyyqeeee427rr77<o   %%",
"oooi  X0pyy0yweeee42rr7rr<> %%oo",
"ooo>aX<yyyyyyweeee42r7777< %-oo@",
"oo  %@oyyppy0qeeee3s77777  oooo#",
"o > %o<dyyyyyweee44277776 X8oooo",
"  .Xoooypyyyyueee44277776Xoooooo",
"  +@#o<dyypyyweee44q777r7<oooo  ",
"  %&@o<ydyyyyfee444277776<ooo   ",
" %oo@o*yypy0yqee434277777oooo   ",
"+o-o&*<dyyypyq4e444<77r77<o-  ;%",
"o:o@ >>dyyyy1w44444277r7rto-  %,",
"ooo   <1y1111w44444277r7roo  %oo",
"&* =$.%1d1111f44444577776** %o8o",
" 9=%%%%11d1d1234444557r66< %ooo$",
" >%oo::< <<--<*< %oo<<o<*%%o#o* ",
"%%oooo  *%o- *  %%oooo  *%o- *  ",
"o:Ooo  %%#o   %%o:Ooo  %%#o   %%",
"oooi  %:o@> %%oooooi  %:o@> %%oo",
"ooo>aXoo@  %-oo@ooo>aXoo@  %-oo@",
"oo  %@oo-; oooo#oo  %@oo-; oooo#",
"o > %ooo >X8ooooo > %ooo >X8oooo"
};
