/* XPM */
static char *_c4628b7cf5c4b26882697aa877a51f7Cnp6tnMasIkyBqNr[] = {
/* columns rows colors chars-per-pixel */
"32 32 31 1 ",
"  c #F5D626",
". c #F6D725",
"X c #F4C215",
"o c #F5E839",
"O c #F6E93B",
"+ c #F5C116",
"@ c #F7E739",
"# c #F5E83A",
"$ c #F4D626",
"% c #F4C116",
"& c #F6E93A",
"* c #F5D624",
"= c #F4D525",
"- c #F4E738",
"; c #F6D526",
": c #F5E837",
"> c #F6D727",
", c #F7E73A",
"< c #333030",
"1 c #292626",
"2 c gray38",
"3 c gray31",
"4 c gray32",
"5 c #363535",
"6 c #F8E83A",
"7 c #F4D628",
"8 c gray68",
"9 c #434141",
"0 c #4C4949",
"q c #F4E939",
"w c #F5D528",
/* pixels */
"  .XooO   oooooo  .XooO   oooooo",
"  +@#oo  $oooo    +@#oo  $oooo  ",
"  %&@o   *ooo     %&@o   *ooo   ",
" %oo@o  =%ooo    %oo@o  =%ooo   ",
"+o-o&*   oo-  ;%+o-o&*   oo-  ;%",
"o:o@ >; %#o-  %,o:o@ >; %#o-  %,",
"ooo     <.11o<< 1,1 1<1>1%o  %oo",
"&* =$. 2.33324 33,52 3>3%1* %o6o",
" 7=%%%<%4%823384229422444% %ooo$",
" >%oo:1248322228825422234<%o#o* ",
"%%oooo  2232422244542222ooo- *  ",
"o:Ooo <3284245555502222321o   %%",
"oooq  X22324554442424448o1> %%oo",
"ooo>wX12232452422244224331 %-oo@",
"oo  %@@@2424922482222248>> oooo#",
"o > %o<232849248328228234>X6oooo",
"  .Xoooo48325242324824234ooooooo",
"  +@#o1o433254432442423341oooo  ",
"  %&@o<24822924233332433o1ooo   ",
" %oo@oo424245544422232844oooo   ",
"+o-o&*122424495055522224 <o-  ;%",
"o:o@ >  34242244245244823 o-  %,",
"ooo   1%3284422244522282 1o  %oo",
"&* =$.o324%88422840222843 * %o6o",
" 7=%%%o 2233oo2*32%4o2oo < %ooo$",
" >%oo: 1%<1oo<*1*%%o11o< %%o#o* ",
"%%oooo  *%o- *  %%oooo  *%o- *  ",
"o:Ooo  %%#o   %%o:Ooo  %%#o   %%",
"oooq  %:o@> %%oooooq  %:o@> %%oo",
"ooo>wXoo@  %-oo@ooo>wXoo@  %-oo@",
"oo  %@oo-; oooo#oo  %@oo-; oooo#",
"o > %ooo >X6ooooo > %ooo >X6oooo"
};
