/* XPM */
static char *abd319c220184ae7b13bdf3d73786dcfHtqzVt39HIR35ZOg[] = {
/* columns rows colors chars-per-pixel */
"32 32 22 1 ",
"  c #F4C215",
". c #F4C116",
"X c #F5C116",
"o c #F4D525",
"O c #F5D624",
"+ c #F6D725",
"@ c #F6D526",
"# c #F4D626",
"$ c #F5D626",
"% c #F6D727",
"& c #F5D528",
"* c #F4D628",
"= c #F5E837",
"- c #F4E738",
"; c #F7E739",
": c #F7E73A",
"> c #F5E839",
", c #F4E939",
"< c #F5E83A",
"1 c #F6E93A",
"2 c #F6E93B",
"3 c #F8E83A",
/* pixels */
"$$$ 111$$$111111$$$ 111$$$111111",
"$$ ;111$$$1111$$$$ ;111$$$1111$$",
"$$ 1;1$$$$111$$$$$ 1;1$$$$111$$$",
"$ 11;1$$$ 111$$$$ 11;1$$$ 111$$$",
" 1;11$$$$11;$$$  1;11$$$$11;$$$ ",
"1=1;$$$$ 11;$$ ;1=1;$$$$ 11;$$ ;",
"111$$$$ 111$$ 11111$$$$ 111$$ 11",
"1$$$$$ 111$$ 1311$$$$$ 111$$ 131",
"$&$   11$$$ 111$$&$   11$$$ 111$",
"$$ 11=1$$$ 111$$$$ 11=1$$$ 111$$",
"  1111$$$ 1;$$$$  1111$$$ 1;$$$$",
"1=111$$  11$$$  1=111$$  11$$$  ",
"1111$$ =1;$$  111111$$ =1;$$  11",
"111$& 11;$$ ;11;111$& 11;$$ ;11;",
"11$$ ;11;$$1111111$$ ;11;$$11111",
"1$$$ 111$$ 311111$$$ 111$$ 31111",
"$$$ 111$$$111111$$$ 111$$$111111",
"$$ ;111$$$1111$$$$ ;111$$$1111$$",
"$$ 1;1$$$$111$$$$$ 1;1$$$$111$$$",
"$ 11;1$$$ 111$$$$ 11;1$$$ 111$$$",
" 1;11$$$$11;$$$  1;11$$$$11;$$$ ",
"1=1;$$$$ 11;$$ ;1=1;$$$$ 11;$$ ;",
"111$$$$ 111$$ 11111$$$$ 111$$ 11",
"1$$$$$ 111$$ 1311$$$$$ 111$$ 131",
"$&$   11$$$ 111$$&$   11$$$ 111$",
"$$ 11=1$$$ 111$$$$ 11=1$$$ 111$$",
"  1111$$$ 1;$$$$  1111$$$ 1;$$$$",
"1=111$$  11$$$. 1=111$$  11$$$. ",
"1111$$ =1;$$  111111$$ =1;$$  11",
"111$& 11;$$ ;11;111$& 11;$$ ;11;",
"11$$ ;11;$$1111111$$ ;11;$$11111",
"1$$$ 111$$ 311111$$$ 111$$ 31111"
};
