/* XPM */
static char *_a677bac9a894b46c74a3acab07c5639NBXQq3gduSgz5Keh[] = {
/* columns rows colors chars-per-pixel */
"32 32 42 1 ",
"  c #F5D626",
". c #F6D725",
"X c #F4C215",
"o c #F5E839",
"O c #F6E93B",
"+ c #F5C116",
"@ c #F7E739",
"# c #F5E83A",
"$ c #F4D626",
"% c #F4C116",
"& c #F6E93A",
"* c #F5D624",
"= c #F4D525",
"- c #F4E738",
"; c #F6D526",
": c #F5E837",
"> c #F6D727",
", c #F7E73A",
"< c #333030",
"1 c #292626",
"2 c gray38",
"3 c gray31",
"4 c gray32",
"5 c #363535",
"6 c #F8E83A",
"7 c #F4D628",
"8 c #4D1A1A",
"9 c gray68",
"0 c #434141",
"q c #BF1313",
"w c #B31212",
"e c #E61717",
"r c white",
"t c black",
"y c #F4E939",
"u c #F5D528",
"i c #800F0F",
"p c #CC1414",
"a c #F21818",
"s c #FF5252",
"d c #991111",
"f c #4C4949",
/* pixels */
"  .XooO   oooooo  .XooO   oooooo",
"  +@#oo  $oooo    +@#oo  $oooo  ",
"  %&@o   *ooo     %&@o   *ooo   ",
" %oo@o  =%ooo    %oo@o  =%ooo   ",
"+o-o&*   oo-  ;%+o-o&*   oo-  ;%",
"o:o@ >; %#o-  %,o:o@ >; %#o-  %,",
"ooo     <.11o<< 1,1 1<1>1%o  %oo",
"&* =$. 2.33324 33,52 3>3%1* %o6o",
" 7=%%%<%48983394220482844% %ooo$",
" >%oo:128q8q88299288q8q84<%o#o* ",
"%%oooo 8we8e8r8248r8e8ew8oo- *  ",
"o:Ooo <8weee8t8558t8eeew81o   %%",
"oooy  X8weee8w8888w8eeew81> %%oo",
"ooo>uX128qei8ippppi8ieq831 %-oo@",
"oo  %@@@2qqipaassaapiqq8>> oooo#",
"o > %o<238ipaassssaaqi834>X6oooo",
"  .Xoooo498paaassaaap8234ooooooo",
"  +@#o1o438wpaaaaaapw83341oooo  ",
"  %&@o<2498iwpaaaapwi833o1ooo   ",
" %oo@oo428ddiwppppwidd844oooo   ",
"+o-o&*128dd88iiiiii88dd8 <o-  ;%",
"o:o@ >  3888dd8888dd88823 o-  %,",
"ooo   1%328dd822448dd892 1o  %oo",
"&* =$.o324%8842294f882943 * %o6o",
" 7=%%%o 2233oo2*32%4o2oo < %ooo$",
" >%oo: 1%<1oo<*1*%%o11o< %%o#o* ",
"%%oooo  *%o- *  %%oooo  *%o- *  ",
"o:Ooo  %%#o   %%o:Ooo  %%#o   %%",
"oooy  %:o@> %%oooooy  %:o@> %%oo",
"ooo>uXoo@  %-oo@ooo>uXoo@  %-oo@",
"oo  %@oo-; oooo#oo  %@oo-; oooo#",
"o > %ooo >X6ooooo > %ooo >X6oooo"
};
