/* XPM */
static char *_08426781a3a4085b088ee0353328570KjXdRojrXE1Q5izL[] = {
/* columns rows colors chars-per-pixel */
"32 32 33 1 ",
"  c #F5D626",
". c #F6D725",
"X c #F4C215",
"o c #F5E839",
"O c #F6E93B",
"+ c #F5C116",
"@ c #F7E739",
"# c #F5E83A",
"$ c #F4D626",
"% c #F4C116",
"& c #F6E93A",
"* c #F5D624",
"= c #F4D525",
"- c #F4E738",
"; c #F6D526",
": c #F5E837",
"> c #F6D727",
", c #F7E73A",
"< c #F8E83A",
"1 c #F4D628",
"2 c #4D1A1A",
"3 c #BF1313",
"4 c #B31212",
"5 c #E61717",
"6 c white",
"7 c black",
"8 c #F4E939",
"9 c #F5D528",
"0 c #800F0F",
"q c #CC1414",
"w c #F21818",
"e c #FF5252",
"r c #991111",
/* pixels */
"  .XooO   oooooo  .XooO   oooooo",
"  +@#oo  $oooo    +@#oo  $oooo  ",
"  %&@o   *ooo     %&@o   *ooo   ",
" %oo@o  =%ooo    %oo@o  =%ooo   ",
"+o-o&*   oo-  ;%+o-o&*   oo-  ;%",
"o:o@ >; %#o-  %,o:o@ >; %#o-  %,",
"ooo    %o&o  %ooooo    %o&o  %oo",
"&* =$.%oo#* %o<o&* =$.%oo#* %o<o",
" 1=%%%oo 2 2ooo$ 1=%2%2o   %ooo$",
" >%oo:o 232322*  >223232  %o#o* ",
"%%oooo 24525262 %26252542%o- *  ",
"o:Ooo  24555272%o27255542#o   %%",
"ooo8  %245552422224255542@> %%oo",
"ooo>9Xoo235020qqqq020532@  %-oo@",
"oo  %@oo-330qwweewwq0332-; oooo#",
"o > %ooo 20qwweeeeww302o >X<oooo",
"  .XooO   2qwwweewwwq2O   oooooo",
"  +@#oo  $24qwwwwwwq42o  $oooo  ",
"  %&@o   *204qwwwwq402   *ooo   ",
" %oo@o  =2rr04qqqq40rr2 =%ooo   ",
"+o-o&*  2rr2200000022rr2 oo-  ;%",
"o:o@ >; %222rr2222rr222 %#o-  %,",
"ooo    %o&2rr2oooo2rr2 %o&o  %oo",
"&* =$.%oo#*22o<o&* 22.%oo#* %o<o",
" 1=%%%oo   %ooo$ 1=%%%oo   %ooo$",
" >%oo:o   %o#o*  >%oo:o   %o#o* ",
"%%oooo  *%o- *  %%oooo  *%o- *  ",
"o:Ooo  %%#o   %%o:Ooo  %%#o   %%",
"ooo8  %:o@> %%ooooo8  %:o@> %%oo",
"ooo>9Xoo@  %-oo@ooo>9Xoo@  %-oo@",
"oo  %@oo-; oooo#oo  %@oo-; oooo#",
"o > %ooo >X<ooooo > %ooo >X<oooo"
};
