/* XPM */
static char *_6ddb10793b64bff8606ddd56009f3a2AB8M0w57ViUZm7QQ[] = {
/* columns rows colors chars-per-pixel */
"32 32 26 1 ",
"  c #F5D626",
". c #F6D725",
"X c #F4C215",
"o c #F5E839",
"O c #F6E93B",
"+ c #F5C116",
"@ c #F7E739",
"# c #F5E83A",
"$ c #F4D626",
"% c #F4C116",
"& c #F6E93A",
"* c #F5D624",
"= c #F4D525",
"- c #F4E738",
"; c #F6D526",
": c #F5E837",
"> c #F6D727",
", c #F7E73A",
"< c #230B0B",
"1 c #F8E83A",
"2 c #F4D628",
"3 c #A53030",
"4 c #8D2929",
"5 c #F4E939",
"6 c #F5D528",
"7 c #A59E34",
/* pixels */
"  .XooO   oooooo  .XooO   oooooo",
"  +@#oo  $oooo    +@#oo  $oooo  ",
"  %&@o   *ooo     %&@o   *ooo   ",
" %oo@o  =%ooo    %oo@o  =%ooo   ",
"+o-o&*   oo-  ;%+o-o&*   oo-  ;%",
"o:o@ >; %#o-  %,o:o@ >; %#o-  %,",
"ooo    %o&o  %ooooo    %o&o  %oo",
"&* =$.%oo#*<<<<o&* =$.%oo#* %o1o",
" 2=%%%oo  <%ooo$ 2=%%%oo   %ooo$",
" >%oo:o  <%o#<<<<<%oo:o   %o#o* ",
"%%oooo  *%<<<33333<ooo  *%o- *  ",
"o:Ooo  %%#o<44<4433<o  %%#o   %%",
"ooo5  %:o@> <4444433< %:o@> %%oo",
"ooo>6Xoo@  <<<44444<7<oo@  %-oo@",
"oo  %@oo-; ooo<<<4<73<oo-; oooo#",
"o > %ooo >X1o<o44<437<oo >X1oooo",
"  .XooO   oooo4<<4473<O   oooooo",
"  +@#oo  $o<<o<4 <433<o  $oooo  ",
"  %&@o   *<33< <<4477<   *ooo   ",
" %oo@o  =%o<33<44733<o  =%ooo   ",
"+o-o&*   o44<44444<<&*   oo-  ;%",
"o:o@ >; %#<444<<<<o@ >; %#o-  %,",
"ooo    %o&o<<<ooooo    %o&o  %oo",
"&* =$.%oo#* %o1o&* =$.%oo#* %o1o",
" 2=%%%oo   %ooo$ 2=%%%oo   %ooo$",
" >%oo:o   %o#o*  >%oo:o   %o#o* ",
"%%oooo  *%o- *  %%oooo  *%o- *  ",
"o:Ooo  %%#o   %%o:Ooo  %%#o   %%",
"ooo5  %:o@> %%ooooo5  %:o@> %%oo",
"ooo>6Xoo@  %-oo@ooo>6Xoo@  %-oo@",
"oo  %@oo-; oooo#oo  %@oo-; oooo#",
"o > %ooo >X1ooooo > %ooo >X1oooo"
};
