/* XPM */
static char *_07680174dd34874be6a444ba6cd85f71Vd0j7HPVQdPpcTG[] = {
/* columns rows colors chars-per-pixel */
"32 32 25 1 ",
"  c #1D9EB4",
". c #1D9FB5",
"X c #1E9FB4",
"o c #1E9FB5",
"O c #209EB5",
"+ c #209EB7",
"@ c #1FA0B6",
"# c #17A9B6",
"$ c #17ABB7",
"% c #1AA9B7",
"& c #18AAB7",
"* c #17A9B8",
"= c #17ABB9",
"- c #17AABA",
"; c #1AA9B9",
": c #18AAB9",
"> c #18A9BA",
", c #19ABBA",
"< c #23BFCC",
"1 c #22BFCE",
"2 c #23BFCE",
"3 c #25BECE",
"4 c #23BED0",
"5 c #24BFD1",
"6 c #24C0CF",
/* pixels */
"> 22*>>2 222 >>>> 22*>>2 222 >>>",
">*>O2>2 >>> 62>>>*>O2>2 >>> 62>>",
"&>>> 2 *>>>>2 2*&>>> 2 *>>>>2 2*",
"2*>>2 >>>>>>2> 22*>>2 >>>>>>2> 2",
" 2>2 222>>>>2*>> 2>2 222>>>>2*>>",
"> 2 >@  2>>>2>&&> 2 >@  2>>>2>&&",
">>2>>>>> 2>> 2>*>>2>>>>> 6>> 2>*",
">>3*>>&*> 2>>2&>>>3*>>&*>@6>>2&>",
">>2#*>>>>>3>2>>>>>2#*>>>>>3>2>>>",
">>6>>>>>*> 2 2>>>>6>>>>>*> 2 6>>",
">> 2>>**>>4O>2*>>> 2>>**>>4O>2*>",
">>> 2>#>52 *> 4>>>> 2>#>52 *> 4>",
"*>>4O222  >>>> 6*>>4O222  >>>> 2",
"2#2O*@  2>>>**462#2O*@  2>>>**42",
" 2 >>>>>6>>>>2@> 2 >>>>>6>>>>2 >",
">2>>>>&&2>>*2 >>>2>>>>&&2>>*2 >>",
"> 22*>>2 226@>>>> 22*>>2 226@>>>",
">*>O2>2 >>>@62>>>*>O2>2 >>>@62>>",
"&>>> 2 *>>>>2 2*&>>> 2 *>>>>2 2*",
"2*>>2 >>>>>>2> 22*>>2 >>>>>>2> 2",
" 2>2 222>>>>2*>> 2>2 222>>>>2*>>",
"> 2 >@  2>>>2>&&> 2 >@  2>>>2>&&",
">>2>>>>> 2>> 2>*>>2>>>>> 2>> 2>*",
">>3*>>&*> 2>>2&>>>3*>>&*> 2>>2&>",
">>2#*>>>>>3>2>>>>>2#*>>>>>3>2>>>",
">>6>>>>>*> 2 2>>>>6>>>>>*> 2 2>>",
">> 2>>**>>4O>2*>>> 2>>**>>4O>2*>",
">>>@2>#>52 *> 4>>>>@2>#>52 *> 4>",
"*>>4O222  >>>> 2*>>4O222  >>>> 2",
"2#2O*@  2>>>**422#2O*@  2>>>**42",
" 2 >>>>>6>>>>6@> 2 >>>>>6>>>>6@>",
">2>>>>&&2>>*2 >>>2>>>>&&2>>*2 >>"
};
